<svg xmlns="http://www.w3.org/2000/svg" xmlns:xlink="http://www.w3.org/1999/xlink" width="18.623" height="18.618" viewBox="0 0 18.623 18.618"><defs><style>.a{fill:url(#a);}.b{fill:#777;}.c{fill:#fff;}</style><radialGradient id="a" cx="0.266" cy="1.077" r="0.991" gradientTransform="matrix(0, -1, -0.93, 0, -3.458, -3.578)" gradientUnits="objectBoundingBox"><stop offset="0" stop-color="#fd5"/><stop offset="0.1" stop-color="#fd5"/><stop offset="0.5" stop-color="#ff543e"/><stop offset="1" stop-color="#c837ab"/></radialGradient></defs><g transform="translate(-1.001 -1)"><path class="a" d="M10.315,1C6.428,1,5.291,1,5.07,1.022a4.62,4.62,0,0,0-1.835.461,3.717,3.717,0,0,0-1.07.783A4,4,0,0,0,1.086,4.531,16.8,16.8,0,0,0,1,7.28C1,8.021,1,9,1,10.305c0,3.884,0,5.02.023,5.241a4.678,4.678,0,0,0,.444,1.8A3.922,3.922,0,0,0,4.01,19.422a6.617,6.617,0,0,0,1.352.179c.231.01,2.581.017,4.933.017s4.7,0,4.929-.014a6.371,6.371,0,0,0,1.4-.183,3.9,3.9,0,0,0,2.542-2.081,4.6,4.6,0,0,0,.439-1.764c.013-.16.018-2.718.018-5.272s-.006-5.108-.018-5.268a4.549,4.549,0,0,0-.448-1.782,3.688,3.688,0,0,0-.8-1.092,4.02,4.02,0,0,0-2.267-1.076A16.782,16.782,0,0,0,13.346,1Z" transform="translate(0)"/><path class="b" d="M10.315,1C6.428,1,5.291,1,5.07,1.022a4.62,4.62,0,0,0-1.835.461,3.717,3.717,0,0,0-1.07.783A4,4,0,0,0,1.086,4.531,16.8,16.8,0,0,0,1,7.28C1,8.021,1,9,1,10.305c0,3.884,0,5.02.023,5.241a4.678,4.678,0,0,0,.444,1.8A3.922,3.922,0,0,0,4.01,19.422a6.617,6.617,0,0,0,1.352.179c.231.01,2.581.017,4.933.017s4.7,0,4.929-.014a6.371,6.371,0,0,0,1.4-.183,3.9,3.9,0,0,0,2.542-2.081,4.6,4.6,0,0,0,.439-1.764c.013-.16.018-2.718.018-5.272s-.006-5.108-.018-5.268a4.549,4.549,0,0,0-.448-1.782,3.688,3.688,0,0,0-.8-1.092,4.02,4.02,0,0,0-2.267-1.076A16.782,16.782,0,0,0,13.346,1Z" transform="translate(0)"/><path class="c" d="M24.876,18c-1.867,0-2.1.008-2.835.042a5.045,5.045,0,0,0-1.669.319,3.517,3.517,0,0,0-2.011,2.01,5.022,5.022,0,0,0-.319,1.669c-.033.733-.041.968-.041,2.835s.008,2.1.042,2.834a5.053,5.053,0,0,0,.319,1.669,3.519,3.519,0,0,0,2.01,2.011,5.046,5.046,0,0,0,1.669.319c.733.033.968.042,2.834.042s2.1-.008,2.834-.042a5.05,5.05,0,0,0,1.669-.319,3.522,3.522,0,0,0,2.011-2.011,5.091,5.091,0,0,0,.319-1.668c.033-.733.042-.967.042-2.834s-.009-2.1-.042-2.835a5.094,5.094,0,0,0-.319-1.669,3.517,3.517,0,0,0-2.011-2.011,5.063,5.063,0,0,0-1.67-.319c-.733-.033-.967-.042-2.835-.042h0Zm-.617,1.239h.617c1.836,0,2.053.007,2.778.04a3.806,3.806,0,0,1,1.276.237,2.278,2.278,0,0,1,1.3,1.3,3.8,3.8,0,0,1,.237,1.276c.033.725.04.942.04,2.777s-.007,2.052-.04,2.777a3.8,3.8,0,0,1-.237,1.276,2.28,2.28,0,0,1-1.3,1.3,3.792,3.792,0,0,1-1.276.237c-.725.033-.942.04-2.778.04s-2.053-.007-2.778-.04a3.819,3.819,0,0,1-1.277-.237,2.277,2.277,0,0,1-1.305-1.3,3.8,3.8,0,0,1-.237-1.276c-.033-.725-.04-.942-.04-2.778s.007-2.052.04-2.777a3.806,3.806,0,0,1,.237-1.276,2.278,2.278,0,0,1,1.305-1.305,3.8,3.8,0,0,1,1.277-.237c.634-.029.88-.037,2.161-.039v0Zm4.287,1.142a.825.825,0,1,0,.825.825.825.825,0,0,0-.825-.825Zm-3.67.964a3.53,3.53,0,1,0,3.53,3.531,3.531,3.531,0,0,0-3.53-3.531Zm0,1.239a2.292,2.292,0,1,1-2.292,2.292A2.292,2.292,0,0,1,24.876,22.583Z" transform="translate(-14.565 -14.565)"/></g></svg>