<?xml version="1.0" encoding="UTF-8"?>
<svg width="50px" height="48px" viewBox="0 0 50 48" version="1.1" xmlns="http://www.w3.org/2000/svg" xmlns:xlink="http://www.w3.org/1999/xlink">
    <!-- Generator: Sketch 43.2 (39069) - http://www.bohemiancoding.com/sketch -->
    <title>CT Logo Color_1024</title>
    <desc>Created with Sketch.</desc>
    <defs></defs>
    <g id="churchvox" stroke="none" stroke-width="1" fill="none" fill-rule="evenodd">
        <g id="CT-Logo-Color">
            <g id="wing_red">
                <path d="M17.7982485,18.429312 C16.2260226,19.554355 12.4394611,23.054597 0.131399263,21.6592236 L0.131399263,12.1299304 C4.74704649,13.4819728 6.57045938,13.4819728 9.18881796,13.4819728 C11.8071765,13.4819728 19.1201807,12.6924518 23.4829538,8.13294401 C22.8749841,10.5655273 22.2060785,14.7020705 17.7982485,18.429312 Z" id="Path-3" fill="#BC2845"></path>
                <path d="M23.8342781,0.382561444 C23.8342781,0.922831868 24.9190168,10.103721 20.2063088,15.9233394 C15.4936007,21.7429577 10.1794731,21.9363855 4.67598768,21.9363855 C8.83888307,19.5469379 12.0853579,15.5007651 13.1448885,12.621795 C14.2044191,9.742825 13.7663554,4.05261389 13.5406742,0.382561444 C17.5161966,0.382561408 20.2063088,0.382561418 23.8342781,0.382561444 Z" id="Path-2" fill="#DD586B"></path>
            </g>
            <g id="wing_green" transform="translate(38.008130, 36.975735) rotate(-180.000000) translate(-38.008130, -36.975735) translate(26.016260, 25.982949)">
                <path d="M17.7982485,18.429312 C16.2260226,19.554355 12.4394611,23.054597 0.131399263,21.6592236 L0.131399263,12.1299304 C4.74704649,13.4819728 6.57045938,13.4819728 9.18881796,13.4819728 C11.8071765,13.4819728 19.1201807,12.6924518 23.4829538,8.13294401 C22.8749841,10.5655273 22.2060785,14.7020705 17.7982485,18.429312 Z" id="Path-3" fill="#1BB2A3"></path>
                <path d="M23.8342781,0.382561444 C23.8342781,0.922831868 24.9190168,10.103721 20.2063088,15.9233394 C15.4936007,21.7429577 10.1794731,21.9363855 4.67598768,21.9363855 C8.83888307,19.5469379 12.0853579,15.5007651 13.1448885,12.621795 C14.2044191,9.742825 13.7663554,4.05261389 13.5406742,0.382561444 C17.5161966,0.382561408 20.2063088,0.382561418 23.8342781,0.382561444 Z" id="Path-2" fill="#5BD8CF"></path>
            </g>
            <g id="wing_yellow" transform="translate(11.585366, 36.376128) scale(1, -1) translate(-11.585366, -36.376128) translate(0.000000, 24.783736)">
                <path d="M22.9754192,0.382561444 C23.2199568,3.41845974 22.9496157,11.0745682 20.4641451,14.7303722 C17.9786744,18.3861762 15.7061817,21.9342384 6.86273342,22.4727522 C11.0256288,20.0833047 11.8072758,15.7283501 12.8668064,12.8493801 C13.926337,9.97041002 13.6605612,4.05261389 13.43488,0.382561444 C17.4104024,0.382561408 19.3474498,0.382561418 22.9754192,0.382561444 Z" id="Path-2" fill="#FC8F00"></path>
                <path d="M17.7982485,18.429312 C16.1081206,19.7952125 12.1302163,23.8532916 0.131399263,22.6306564 L0.131399263,12.4884841 C5.01083746,13.2174979 6.18747618,13.4653821 9.70806339,13.4653821 C13.2286506,13.4653821 18.2950648,11.6560226 22.9138878,5.95741857 C22.4760226,9.73072359 21.8833365,14.9144312 17.7982485,18.429312 Z" id="Path-3" fill="#FFC776"></path>
            </g>
            <g id="wing_blue" transform="translate(38.414634, 11.592392) scale(-1, 1) translate(-38.414634, -11.592392) translate(26.829268, 0.000000)">
                <path d="M23.02127,0.382561444 C23.02127,0.922831868 23.8993823,11.1805534 19.1866743,17.0001717 C14.4739663,22.8197901 8.61260639,22.805932 3.10912093,22.805932 C7.27201632,20.4164845 11.7538824,16.6174151 12.882884,12.9807392 C14.0118855,9.34406325 13.6111376,4.43244275 13.3471481,0.382561444 C17.3226705,0.382561408 19.3933006,0.382561418 23.02127,0.382561444 Z" id="Path-2" fill="#0063AD"></path>
                <path d="M17.0227547,19.252795 C14.6974641,20.9745167 10.4049559,24.1948643 0.116314151,22.6027451 L0.116314151,12.5484057 C3.30046367,13.2040302 5.75745125,13.4819728 8.37580983,13.4819728 C10.9941684,13.4819728 17.7853468,14.2340183 22.9581507,5.80888323 C22.4281869,11.0798382 21.4305847,15.5255535 17.0227547,19.252795 Z" id="Path-3" fill="#499BCE"></path>
            </g>
        </g>
    </g>
</svg>