<svg xmlns="http://www.w3.org/2000/svg" width="18.618" height="18.618" viewBox="0 0 18.618 18.618"><defs><style>.a{fill:#777;}.b{fill:#fff;}</style></defs><g transform="translate(-4.588 -4.588)"><path class="a" d="M22.178,23.206a1.028,1.028,0,0,0,1.027-1.028V5.616a1.027,1.027,0,0,0-1.027-1.028H5.616A1.027,1.027,0,0,0,4.588,5.616V22.178a1.028,1.028,0,0,0,1.028,1.028Z" transform="translate(0 0)"/><path class="b" d="M113.986,59.318v-7.21h2.42l.362-2.81h-2.782V47.5c0-.814.226-1.368,1.392-1.368h1.488V43.623a19.889,19.889,0,0,0-2.168-.111,3.386,3.386,0,0,0-3.614,3.714V49.3h-2.426v2.81h2.426v7.21Z" transform="translate(-96.552 -36.112)"/></g></svg>