<svg xmlns="http://www.w3.org/2000/svg" width="110" height="110" viewBox="0 0 110 110"><defs><style>.a{fill:#003d58;}</style></defs><path class="a" d="M125.891,48.11a55,55,0,1,0,0,77.782,55,55,0,0,0,0-77.782Zm-21.212,27.1a5.878,5.878,0,1,1-4.171,1.722A5.893,5.893,0,0,1,104.679,75.215Zm-35.357,0a5.878,5.878,0,1,1-4.171,1.722A5.893,5.893,0,0,1,69.322,75.215Zm17.691,43.214a24.368,24.368,0,0,1-23.5-17.146c-.255-.864-.572-2.5-.572-2.5h48.125s-.322,1.643-.572,2.5A24.289,24.289,0,0,1,87.012,118.429Z" transform="translate(-32 -32)"/></svg>