<svg xmlns="http://www.w3.org/2000/svg" width="111.91" height="82.067" viewBox="0 0 111.91 82.067"><defs><style>.a{fill:#003d58;}</style></defs><g transform="translate(-16 -80)"><ellipse class="a" cx="17.703" cy="16.228" rx="17.703" ry="16.228" transform="translate(30.543 88.852)"/><path class="a" d="M66.826,280.663A44.192,44.192,0,0,0,47.708,276C37.314,276,16,282.374,16,295.118v9.792H50.972v-3.746A19.244,19.244,0,0,1,56.1,288.59,35.1,35.1,0,0,1,66.826,280.663Z" transform="translate(0 -150.304)"/><path class="a" d="M220.371,288C208.231,288,184,295.5,184,310.382v11.191h72.741V310.382C256.741,295.5,232.51,288,220.371,288Z" transform="translate(-128.832 -159.506)"/><circle class="a" cx="20.654" cy="20.654" r="20.654" transform="translate(71.85 80)"/></g></svg>