<svg xmlns="http://www.w3.org/2000/svg" width="107.491" height="107.492" viewBox="0 0 107.491 107.492"><defs><style>.a{fill:#003d58;}</style></defs><path class="a" d="M123.749,47.742a53.746,53.746,0,1,0,0,76.008,53.745,53.745,0,0,0,0-76.008ZM103.021,74.229a5.744,5.744,0,1,1-4.076,1.682A5.758,5.758,0,0,1,103.021,74.229Zm-34.551,0a5.744,5.744,0,1,1-4.076,1.682A5.758,5.758,0,0,1,68.47,74.229ZM85.746,93.424a23.812,23.812,0,0,1,22.967,16.755c.24.845.559,2.44.559,2.44H62.232s.314-1.605.559-2.44A23.739,23.739,0,0,1,85.746,93.424Z" transform="translate(-32 -32)"/></svg>