<svg xmlns="http://www.w3.org/2000/svg" width="23.59" height="16.517" viewBox="0 0 23.59 16.517"><defs><style>.a{fill:ion-color-base;}.b{fill:#f9f9f9;}</style></defs><path class="a" d="M23.1,2.584A2.956,2.956,0,0,0,21.025.505C19.179,0,11.795,0,11.795,0S4.411,0,2.565.486a3.016,3.016,0,0,0-2.079,2.1A31.143,31.143,0,0,0,0,8.258a31.027,31.027,0,0,0,.486,5.674,2.956,2.956,0,0,0,2.079,2.079c1.865.505,9.23.505,9.23.505s7.384,0,9.23-.486A2.956,2.956,0,0,0,23.1,13.952a31.143,31.143,0,0,0,.486-5.674A29.571,29.571,0,0,0,23.1,2.584Z" transform="translate(0)"/><path class="b" d="M35.51,18.281l-6.922-3.986v7.973Z" transform="translate(-19.567 -10.022)"/></svg>