<svg id="Ebene_1" data-name="Ebene 1" xmlns="http://www.w3.org/2000/svg" viewBox="0 0 56.16 56.16"><defs><style>.cls-1{fill:none;stroke:#e1a730;stroke-miterlimit:10;}</style></defs><line class="cls-1" x1="3.62" x2="3.62" y2="7.23"/><line class="cls-1" y1="3.62" x2="7.23" y2="3.62"/><line class="cls-1" x1="15.85" x2="15.85" y2="7.23"/><line class="cls-1" x1="12.23" y1="3.62" x2="19.46" y2="3.62"/><line class="cls-1" x1="28.08" x2="28.08" y2="7.23"/><line class="cls-1" x1="24.46" y1="3.62" x2="31.7" y2="3.62"/><line class="cls-1" x1="40.31" x2="40.31" y2="7.23"/><line class="cls-1" x1="36.7" y1="3.62" x2="43.93" y2="3.62"/><line class="cls-1" x1="52.54" x2="52.54" y2="7.23"/><line class="cls-1" x1="48.93" y1="3.62" x2="56.16" y2="3.62"/><line class="cls-1" x1="3.62" y1="12.23" x2="3.62" y2="19.46"/><line class="cls-1" y1="15.85" x2="7.23" y2="15.85"/><line class="cls-1" x1="15.85" y1="12.23" x2="15.85" y2="19.46"/><line class="cls-1" x1="12.23" y1="15.85" x2="19.46" y2="15.85"/><line class="cls-1" x1="28.08" y1="12.23" x2="28.08" y2="19.46"/><line class="cls-1" x1="24.46" y1="15.85" x2="31.7" y2="15.85"/><line class="cls-1" x1="40.31" y1="12.23" x2="40.31" y2="19.46"/><line class="cls-1" x1="36.7" y1="15.85" x2="43.93" y2="15.85"/><line class="cls-1" x1="52.54" y1="12.23" x2="52.54" y2="19.46"/><line class="cls-1" x1="48.93" y1="15.85" x2="56.16" y2="15.85"/><line class="cls-1" x1="3.62" y1="24.46" x2="3.62" y2="31.7"/><line class="cls-1" y1="28.08" x2="7.23" y2="28.08"/><line class="cls-1" x1="15.85" y1="24.46" x2="15.85" y2="31.7"/><line class="cls-1" x1="12.23" y1="28.08" x2="19.46" y2="28.08"/><line class="cls-1" x1="28.08" y1="24.46" x2="28.08" y2="31.7"/><line class="cls-1" x1="24.46" y1="28.08" x2="31.7" y2="28.08"/><line class="cls-1" x1="40.31" y1="24.46" x2="40.31" y2="31.7"/><line class="cls-1" x1="36.7" y1="28.08" x2="43.93" y2="28.08"/><line class="cls-1" x1="52.54" y1="24.46" x2="52.54" y2="31.7"/><line class="cls-1" x1="48.93" y1="28.08" x2="56.16" y2="28.08"/><line class="cls-1" x1="3.62" y1="36.7" x2="3.62" y2="43.93"/><line class="cls-1" y1="40.31" x2="7.23" y2="40.31"/><line class="cls-1" x1="15.85" y1="36.7" x2="15.85" y2="43.93"/><line class="cls-1" x1="12.23" y1="40.31" x2="19.46" y2="40.31"/><line class="cls-1" x1="28.08" y1="36.7" x2="28.08" y2="43.93"/><line class="cls-1" x1="24.46" y1="40.31" x2="31.7" y2="40.31"/><line class="cls-1" x1="40.31" y1="36.7" x2="40.31" y2="43.93"/><line class="cls-1" x1="36.7" y1="40.31" x2="43.93" y2="40.31"/><line class="cls-1" x1="52.54" y1="36.7" x2="52.54" y2="43.93"/><line class="cls-1" x1="48.93" y1="40.31" x2="56.16" y2="40.31"/><line class="cls-1" x1="3.62" y1="48.93" x2="3.62" y2="56.16"/><line class="cls-1" y1="52.54" x2="7.23" y2="52.54"/><line class="cls-1" x1="15.85" y1="48.93" x2="15.85" y2="56.16"/><line class="cls-1" x1="12.23" y1="52.54" x2="19.46" y2="52.54"/><line class="cls-1" x1="28.08" y1="48.93" x2="28.08" y2="56.16"/><line class="cls-1" x1="24.46" y1="52.54" x2="31.7" y2="52.54"/><line class="cls-1" x1="40.31" y1="48.93" x2="40.31" y2="56.16"/><line class="cls-1" x1="36.7" y1="52.54" x2="43.93" y2="52.54"/><line class="cls-1" x1="52.54" y1="48.93" x2="52.54" y2="56.16"/><line class="cls-1" x1="48.93" y1="52.54" x2="56.16" y2="52.54"/></svg>