<svg id="Ebene_1" data-name="Ebene 1" xmlns="http://www.w3.org/2000/svg" viewBox="0 0 72.77 121.63"><defs><style>.cls-1{fill:#003d58;}</style></defs><path class="cls-1" d="M70.69,77,36.22,120,2.07,77h16.6l17.6,22.16L54,77H70.69m2.08-1H53.55l-.3.37-17,21.19L19.45,76.4l-.3-.38H0l1.29,1.62,34.15,43,.78,1,.78-1,34.47-43L72.77,76Z"/><path class="cls-1" d="M70.69,39,36.22,82,2.07,39h16.6l17.6,22.16L54,39H70.69m2.08-1H53.55l-.3.37-17,21.19L19.45,38.39l-.3-.38H0l1.29,1.62,34.15,43,.78,1,.78-1,34.47-43L72.77,38Z"/><path class="cls-1" d="M70.69,1,36.22,44,2.07,1h16.6l17.6,22.16L54,1H70.69m2.08-1H53.55l-.3.37-17,21.19L19.45.38,19.15,0H0L1.29,1.62l34.15,43,.78,1,.78-1,34.47-43L72.77,0Z"/></svg>