<svg id="Ebene_1" data-name="Ebene 1" xmlns="http://www.w3.org/2000/svg" viewBox="0 0 72.77 121.63"><path d="M36.22,1,70.69,44H54L36.27,21.85,18.67,44H2.07L36.22,1m0-1.6-.78,1-34.15,43L0,45H19.15l.3-.38L36.27,23.45l17,21.19.3.37H72.77l-1.3-1.63L37,.37l-.78-1Z"/><path d="M36.22,39,70.69,82H54L36.27,59.86,18.67,82H2.07L36.22,39m0-1.6-.78,1L1.29,81.4,0,83H19.15l.3-.38L36.27,61.46l17,21.19.3.37H72.77l-1.3-1.63L37,38.38l-.78-1Z"/><path d="M36.22,77l34.47,43H54L36.27,97.87,18.67,120H2.07L36.22,77m0-1.6-.78,1-34.15,43L0,121H19.15l.3-.38L36.27,99.47l17,21.19.3.37H72.77l-1.3-1.63L37,76.39l-.78-1Z"/></svg>