<svg id="Ebene_1" data-name="Ebene 1" xmlns="http://www.w3.org/2000/svg" viewBox="0 0 54.78 54.78"><circle cx="1.48" cy="1.48" r="1.48"/><circle cx="14.43" cy="1.48" r="1.48"/><circle cx="27.39" cy="1.48" r="1.48"/><circle cx="40.35" cy="1.48" r="1.48"/><circle cx="53.3" cy="1.48" r="1.48"/><circle cx="1.48" cy="14.43" r="1.48"/><circle cx="14.43" cy="14.43" r="1.48"/><circle cx="27.39" cy="14.43" r="1.48"/><circle cx="40.35" cy="14.43" r="1.48"/><circle cx="53.3" cy="14.43" r="1.48"/><circle cx="1.48" cy="27.39" r="1.48"/><circle cx="14.43" cy="27.39" r="1.48"/><circle cx="27.39" cy="27.39" r="1.48"/><circle cx="40.35" cy="27.39" r="1.48"/><circle cx="53.3" cy="27.39" r="1.48"/><circle cx="1.48" cy="40.35" r="1.48"/><circle cx="14.43" cy="40.35" r="1.48"/><circle cx="27.39" cy="40.35" r="1.48"/><circle cx="40.35" cy="40.35" r="1.48"/><circle cx="53.3" cy="40.35" r="1.48"/><circle cx="1.48" cy="53.3" r="1.48"/><circle cx="14.43" cy="53.3" r="1.48"/><circle cx="27.39" cy="53.3" r="1.48"/><circle cx="40.35" cy="53.3" r="1.48"/><circle cx="53.3" cy="53.3" r="1.48"/></svg>